<?xml version="1.0" encoding="iso-8859-1"?>
<!-- Generator: Adobe Illustrator 19.0.0, SVG Export Plug-In . SVG Version: 6.00 Build 0)  -->
<svg version="1.1" id="Capa_1" xmlns="http://www.w3.org/2000/svg" xmlns:xlink="http://www.w3.org/1999/xlink" x="0px" y="0px"
	 viewBox="0 0 512 512" style="enable-background:new 0 0 512 512;" xml:space="preserve">
<g>
	<g>
		<path d="M256,0C128.521,0,59.733,39.569,59.733,76.8c0,37.231,68.787,76.8,196.267,76.8s196.267-39.569,196.267-76.8
			C452.267,39.569,383.479,0,256,0z M256,136.533c-105.6,0-179.2-31.479-179.2-59.733c0-28.254,73.6-59.733,179.2-59.733
			S435.2,48.546,435.2,76.8C435.2,105.054,361.6,136.533,256,136.533z"/>
	</g>
</g>
<g>
	<g>
		<path d="M443.733,315.733c-4.71,0-8.533,3.814-8.533,8.533c0,14.763-71.424,51.2-179.2,51.2s-179.2-36.437-179.2-51.2
			c0-4.719-3.823-8.533-8.533-8.533s-8.533,3.814-8.533,8.533v119.467C59.733,478.822,155.119,512,256,512
			s196.267-33.178,196.267-68.267V324.267C452.267,319.548,448.444,315.733,443.733,315.733z M435.2,443.733
			c0,14.763-71.424,51.2-179.2,51.2s-179.2-36.437-179.2-51.2v-93.551c31.863,23.919,104.004,42.351,179.2,42.351
			s147.337-18.432,179.2-42.351V443.733z"/>
	</g>
</g>
<g>
	<g>
		<path d="M443.733,196.267c-4.71,0-8.533,3.814-8.533,8.533c0,14.763-71.424,51.2-179.2,51.2S76.8,219.563,76.8,204.8
			c0-4.719-3.823-8.533-8.533-8.533s-8.533,3.814-8.533,8.533v119.467c0,35.089,95.386,68.267,196.267,68.267
			s196.267-33.178,196.267-68.267V204.8C452.267,200.081,448.444,196.267,443.733,196.267z M435.2,324.267
			c0,14.763-71.424,51.2-179.2,51.2s-179.2-36.437-179.2-51.2v-93.551c31.863,23.919,104.004,42.351,179.2,42.351
			s147.337-18.432,179.2-42.351V324.267z"/>
	</g>
</g>
<g>
	<g>
		<path d="M443.733,68.267c-4.71,0-8.533,3.814-8.533,8.533c0,28.254-73.6,59.733-179.2,59.733S76.8,105.054,76.8,76.8
			c0-4.719-3.823-8.533-8.533-8.533s-8.533,3.814-8.533,8.533v128c0,35.089,95.386,68.267,196.267,68.267
			s196.267-33.178,196.267-68.267v-128C452.267,72.081,448.444,68.267,443.733,68.267z M435.2,204.8
			c0,14.763-71.424,51.2-179.2,51.2S76.8,219.563,76.8,204.8v-96.077C104.508,133.632,165.444,153.6,256,153.6
			s151.492-19.968,179.2-44.877V204.8z"/>
	</g>
</g>
<g>
</g>
<g>
</g>
<g>
</g>
<g>
</g>
<g>
</g>
<g>
</g>
<g>
</g>
<g>
</g>
<g>
</g>
<g>
</g>
<g>
</g>
<g>
</g>
<g>
</g>
<g>
</g>
<g>
</g>
</svg>
