<?xml version="1.0" encoding="iso-8859-1"?>
<!-- Generator: Adobe Illustrator 19.0.0, SVG Export Plug-In . SVG Version: 6.00 Build 0)  -->
<svg version="1.1" id="Capa_1" xmlns="http://www.w3.org/2000/svg" xmlns:xlink="http://www.w3.org/1999/xlink" x="0px" y="0px"
	 viewBox="0 0 511 511" style="enable-background:new 0 0 511 511;" xml:space="preserve">
<path d="M391.5,63c12.958,0,23.5-10.542,23.5-23.5v-16C415,10.542,404.458,0,391.5,0h-272C106.542,0,96,10.542,96,23.5v16
	C96,52.458,106.542,63,119.5,63h8.5v385h-8.5c-12.958,0-23.5,10.542-23.5,23.5v16c0,12.958,10.542,23.5,23.5,23.5h272
	c12.958,0,23.5-10.542,23.5-23.5v-16c0-12.958-10.542-23.5-23.5-23.5H383V63H391.5z M368,329.146l-225,37.5v-24.793l225-37.5
	V329.146z M368,289.146l-225,37.5v-24.793l225-37.5V289.146z M368,249.146l-225,37.5v-24.793l225-37.5V249.146z M368,209.146
	l-225,37.5v-24.793l225-37.5V209.146z M368,169.146l-225,37.5v-24.793l225-37.5V169.146z M143,381.854l225-37.5v24.793l-225,37.5
	V381.854z M368,129.146l-225,37.5v-24.793l225-37.5V129.146z M143,421.854l225-37.5v24.793l-225,37.5V421.854z M368,89.146
	l-225,37.5v-24.793l225-37.5V89.146z M111,39.5v-16c0-4.687,3.813-8.5,8.5-8.5h272c4.687,0,8.5,3.813,8.5,8.5v16
	c0,4.687-3.813,8.5-8.5,8.5h-272C114.813,48,111,44.187,111,39.5z M284.879,63L143,86.646V63H284.879z M400,471.5v16
	c0,4.687-3.813,8.5-8.5,8.5h-272c-4.687,0-8.5-3.813-8.5-8.5v-16c0-4.687,3.813-8.5,8.5-8.5h15.969c0.007,0,0.014,0.001,0.022,0.001
	c0.004,0,0.008-0.001,0.012-0.001H391.5C396.187,463,400,466.813,400,471.5z M226.121,448L368,424.354V448H226.121z"/>
<g>
</g>
<g>
</g>
<g>
</g>
<g>
</g>
<g>
</g>
<g>
</g>
<g>
</g>
<g>
</g>
<g>
</g>
<g>
</g>
<g>
</g>
<g>
</g>
<g>
</g>
<g>
</g>
<g>
</g>
</svg>
