<svg id="Capa_1" enable-background="new 0 0 512 512" height="512" viewBox="0 0 512 512" width="512" xmlns="http://www.w3.org/2000/svg"><g><path d="m458.03 83.96c4.142 0 7.5-3.358 7.5-7.5v-68.96c0-3.067-1.867-5.825-4.714-6.963s-6.101-.43-8.216 1.791l-23.43 24.597-23.429-24.598c-1.416-1.486-3.379-2.327-5.431-2.327s-4.015.841-5.431 2.327l-23.429 24.598-23.43-24.598c-.096-.101-.193-.186-.291-.261-.674-.638-1.458-1.171-2.354-1.529-2.847-1.139-6.101-.43-8.216 1.79l-23.439 24.6-23.429-24.6c-1.416-1.486-3.379-2.327-5.431-2.327s-4.015.841-5.431 2.327l-23.429 24.598-23.429-24.598c-1.416-1.486-3.379-2.327-5.431-2.327s-4.015.841-5.431 2.327l-23.431 24.599-23.439-24.6c-1.415-1.485-3.377-2.326-5.429-2.326s-4.015.841-5.43 2.327l-23.43 24.598-23.429-24.598c-1.416-1.486-3.379-2.327-5.431-2.327s-4.015.841-5.431 2.327l-23.429 24.598-23.429-24.598c-2.116-2.221-5.371-2.929-8.216-1.791-2.848 1.139-4.715 3.897-4.715 6.964v68.96c0 4.142 3.358 7.5 7.5 7.5s7.5-3.358 7.5-7.5v-50.211l15.929 16.724c1.416 1.486 3.378 2.327 5.431 2.327s4.015-.841 5.431-2.327l23.429-24.598 23.429 24.598c1.416 1.486 3.378 2.327 5.431 2.327s4.015-.841 5.431-2.327l23.431-24.599 23.439 24.6c1.416 1.485 3.378 2.326 5.43 2.326s4.015-.841 5.43-2.327l23.43-24.598 23.429 24.598c1.416 1.486 3.378 2.327 5.431 2.327 2.052 0 4.015-.841 5.431-2.327l23.429-24.598 23.43 24.598c1.416 1.486 3.378 2.327 5.43 2.327 2.052 0 4.015-.841 5.43-2.326l15.94-16.729v264.235c0 4.142 3.358 7.5 7.5 7.5s7.5-3.358 7.5-7.5v-264.231l15.93 16.724c1.416 1.486 3.378 2.327 5.431 2.327s4.015-.841 5.431-2.327l15.928-16.723v424.338l-42.719 37.379v-162.387c0-4.142-3.358-7.5-7.5-7.5s-7.5 3.358-7.5 7.5v171.42h-273.622v-385.44c0-4.142-3.358-7.5-7.5-7.5s-7.5 3.358-7.5 7.5v392.94c0 4.142 3.358 7.5 7.5 7.5h404.06c4.142 0 7.5-3.358 7.5-7.5v-392.94c0-4.142-3.358-7.5-7.5-7.5s-7.5 3.358-7.5 7.5v376.409l-42.721-37.381v-424.34l15.93 16.725c1.416 1.486 3.378 2.327 5.431 2.327s4.015-.841 5.431-2.327l15.929-16.724v50.211c0 4.142 3.358 7.5 7.5 7.5zm-57.721 379.998 37.763 33.042h-75.525z"/></g></svg>