<svg height="512" viewBox="0 0 74 74" width="512" xmlns="http://www.w3.org/2000/svg"><g id="line_icons" data-name="line icons"><path d="m63.32 58.807h-52.079a3.9 3.9 0 0 1 -3.9-3.9v-31.528a3.9 3.9 0 0 1 3.9-3.9h52.079a3.905 3.905 0 0 1 3.9 3.9v11.856a1 1 0 0 1 -2 0v-11.856a1.9 1.9 0 0 0 -1.9-1.9h-52.079a1.9 1.9 0 0 0 -1.9 1.9v31.528a1.9 1.9 0 0 0 1.9 1.9h52.079a1 1 0 1 1 0 2z"/><path d="m8.344 54.521h-2.439a3.9 3.9 0 0 1 -3.9-3.9v-31.521a3.909 3.909 0 0 1 3.905-3.9h52.069a3.91 3.91 0 0 1 3.905 3.9v1.377a1 1 0 1 1 -2 0v-1.377a1.908 1.908 0 0 0 -1.905-1.9h-52.074a1.907 1.907 0 0 0 -1.905 1.9v31.526a1.9 1.9 0 0 0 1.905 1.9h2.439a1 1 0 1 1 0 2z"/><path d="m54.852 53.673h-35.558a1 1 0 0 1 -1-1 4.622 4.622 0 0 0 -4.616-4.616 1 1 0 0 1 -1-1v-15.828a1 1 0 0 1 1-1 4.622 4.622 0 0 0 4.616-4.616 1 1 0 0 1 1-1h35.973a1 1 0 0 1 1 1 4.622 4.622 0 0 0 4.616 4.616 1 1 0 0 1 1 1v3.766a1 1 0 0 1 -2 0v-2.842a6.632 6.632 0 0 1 -5.541-5.54h-34.123a6.632 6.632 0 0 1 -5.541 5.54v13.979a6.633 6.633 0 0 1 5.541 5.541h34.633a1 1 0 1 1 0 2z"/><path d="m37.28 48.612a9.47 9.47 0 1 1 9.47-9.469 9.48 9.48 0 0 1 -9.47 9.469zm0-16.939a7.47 7.47 0 1 0 7.47 7.47 7.478 7.478 0 0 0 -7.47-7.47z"/><path d="m36.8 44.212v-.733a4.071 4.071 0 0 1 -2.143-.617l.343-.938a3.736 3.736 0 0 0 2.017.6c.995 0 1.667-.574 1.667-1.373 0-.77-.546-1.247-1.583-1.667-1.429-.56-2.311-1.2-2.311-2.423a2.3 2.3 0 0 1 2.11-2.254v-.734h.868v.678a3.744 3.744 0 0 1 1.822.49l-.35.925a3.388 3.388 0 0 0 -1.765-.476c-1.079 0-1.485.644-1.485 1.2 0 .729.518 1.093 1.737 1.6 1.443.589 2.171 1.317 2.171 2.564a2.437 2.437 0 0 1 -2.213 2.382v.775z"/><path d="m37.687 44.337h-.887a.125.125 0 0 1 -.125-.125v-.612a4.15 4.15 0 0 1 -2.091-.636.125.125 0 0 1 -.045-.144l.336-.938a.126.126 0 0 1 .079-.077.122.122 0 0 1 .108.015 3.6 3.6 0 0 0 1.948.581c.908 0 1.542-.513 1.542-1.248 0-.669-.436-1.118-1.5-1.551-1.24-.486-2.389-1.131-2.389-2.54a2.4 2.4 0 0 1 2.115-2.36v-.629a.125.125 0 0 1 .125-.125h.869a.126.126 0 0 1 .125.125v.558a3.823 3.823 0 0 1 1.76.5.125.125 0 0 1 .053.152l-.351.924a.123.123 0 0 1 -.074.074.126.126 0 0 1 -.1-.01 3.252 3.252 0 0 0 -1.7-.459c-1 0-1.36.581-1.36 1.08 0 .609.387.955 1.66 1.48 1.576.644 2.248 1.445 2.248 2.68a2.553 2.553 0 0 1 -2.213 2.486v.671a.126.126 0 0 1 -.133.128zm-.758-.25h.633v-.65a.125.125 0 0 1 .1-.124 2.323 2.323 0 0 0 2.109-2.258c0-1.132-.607-1.841-2.093-2.448-1.23-.508-1.815-.894-1.815-1.712 0-.662.5-1.33 1.61-1.33a3.454 3.454 0 0 1 1.7.422l.262-.689a3.671 3.671 0 0 0 -1.671-.422.125.125 0 0 1 -.121-.125v-.551h-.619v.609a.125.125 0 0 1 -.105.123 2.183 2.183 0 0 0 -2.01 2.132c0 1.189.892 1.782 2.232 2.308 1.166.472 1.662 1.005 1.662 1.783a1.592 1.592 0 0 1 -1.792 1.5 3.87 3.87 0 0 1 -1.952-.538l-.25.7a4.1 4.1 0 0 0 1.994.541.125.125 0 0 1 .123.125z"/><path d="m62.926 44.489c-5.089 0-9.074-2.335-9.074-5.315s3.985-5.315 9.074-5.315 9.074 2.334 9.074 5.315-3.986 5.315-9.074 5.315zm0-8.63c-4.169 0-7.074 1.747-7.074 3.315s2.905 3.315 7.074 3.315 7.074-1.747 7.074-3.315-2.9-3.315-7.074-3.315z"/><path d="m62.926 49.262c-5.089 0-9.074-2.335-9.074-5.315a1 1 0 0 1 2 0c0 1.568 2.905 3.315 7.074 3.315s7.074-1.747 7.074-3.315a1 1 0 0 1 2 0c0 2.98-3.986 5.315-9.074 5.315z"/><path d="m62.926 54.034c-5.089 0-9.074-2.334-9.074-5.315a1 1 0 0 1 2 0c0 1.568 2.905 3.315 7.074 3.315s7.074-1.747 7.074-3.315a1 1 0 1 1 2 0c0 2.981-3.986 5.315-9.074 5.315z"/><path d="m62.926 58.807c-5.089 0-9.074-2.335-9.074-5.315a1 1 0 0 1 2 0c0 1.568 2.905 3.315 7.074 3.315s7.074-1.747 7.074-3.315a1 1 0 1 1 2 0c0 2.98-3.986 5.315-9.074 5.315z"/><path d="m62.56 41.577v-.348a4.647 4.647 0 0 1 -1.644-.292l.258-.445a4.232 4.232 0 0 0 1.547.285c.764 0 1.279-.272 1.279-.65s-.419-.591-1.214-.79c-1.1-.266-1.773-.571-1.773-1.149 0-.551.634-.969 1.623-1.069v-.348h.664v.321a4.3 4.3 0 0 1 1.4.233l-.268.438a3.856 3.856 0 0 0 -1.355-.226c-.828 0-1.139.306-1.139.571 0 .345.4.518 1.333.757 1.107.279 1.666.624 1.666 1.215 0 .525-.592 1.016-1.7 1.129v.368z"/><path d="m63.237 41.7h-.676a.125.125 0 0 1 -.125-.125v-.226a4.611 4.611 0 0 1 -1.57-.3.123.123 0 0 1 -.058-.176l.257-.446a.126.126 0 0 1 .157-.053 4.068 4.068 0 0 0 1.5.276c.668 0 1.153-.221 1.153-.526 0-.268-.345-.474-1.12-.668-.969-.235-1.867-.551-1.867-1.27 0-.6.633-1.053 1.623-1.18v-.237a.126.126 0 0 1 .125-.125h.664a.126.126 0 0 1 .125.125v.2a4.325 4.325 0 0 1 1.315.237.126.126 0 0 1 .064.183l-.269.438a.126.126 0 0 1 -.148.052 3.734 3.734 0 0 0 -1.313-.218c-.7 0-1.014.231-1.014.445 0 .242.3.4 1.238.636.87.219 1.761.549 1.761 1.336 0 .627-.663 1.107-1.7 1.24v.257a.125.125 0 0 1 -.122.125zm-.551-.25h.426v-.243a.127.127 0 0 1 .113-.125c1.095-.111 1.586-.584 1.586-1 0-.489-.471-.816-1.572-1.094-.967-.247-1.427-.442-1.427-.878 0-.32.331-.7 1.264-.7a4.006 4.006 0 0 1 1.3.2l.135-.218a4.4 4.4 0 0 0 -1.212-.177.124.124 0 0 1 -.122-.125v-.2h-.416v.223a.127.127 0 0 1 -.113.125c-.918.092-1.51.463-1.51.944 0 .441.486.739 1.677 1.027.681.171 1.31.4 1.31.911 0 .464-.563.776-1.4.776a4.423 4.423 0 0 1 -1.494-.255l-.131.227a4.931 4.931 0 0 0 1.465.23.126.126 0 0 1 .124.125z"/><path d="m54.852 54.492a1 1 0 0 1 -1-1v-14.318a1 1 0 0 1 2 0v14.318a1 1 0 0 1 -1 1z"/><path d="m71 54.492a1 1 0 0 1 -1-1v-14.318a1 1 0 0 1 2 0v14.318a1 1 0 0 1 -1 1z"/></g></svg>